<svg xmlns="http://www.w3.org/2000/svg" width="344" height="640" viewBox="0 0 166 320" style="background:#000;border-radius:10px">
<rect x="0" y="0" width="166" height="320" rx="4" fill="#000"/>
<rect x="0" y="0" width="166" height="320" fill="#000000"/>
<rect x="0" y="0" width="166" height="34" fill="#4a417b"/>
<text x="55" y="13" fill="#ffffff" font-family="DejaVu Sans Mono, Consolas, monospace" font-size="14" letter-spacing="0" textLength="56" lengthAdjust="spacingAndGlyphs" xml:space="preserve">Traffic</text>
<text x="51" y="30" fill="#ffffff" font-family="DejaVu Sans Mono, Consolas, monospace" font-size="14" letter-spacing="0" textLength="64" lengthAdjust="spacingAndGlyphs" xml:space="preserve">- 7/26 -</text>
<text x="0" y="52" fill="#848284" font-family="DejaVu Sans Mono, Consolas, monospace" font-size="14" letter-spacing="0" textLength="16" lengthAdjust="spacingAndGlyphs" xml:space="preserve">RX</text>
<text x="108" y="52" fill="#00ff00" font-family="DejaVu Sans Mono, Consolas, monospace" font-size="14" letter-spacing="0" textLength="56" lengthAdjust="spacingAndGlyphs" xml:space="preserve">139.6KB</text>
<text x="0" y="69" fill="#848284" font-family="DejaVu Sans Mono, Consolas, monospace" font-size="14" letter-spacing="0" textLength="16" lengthAdjust="spacingAndGlyphs" xml:space="preserve">TX</text>
<text x="116" y="69" fill="#00ffff" font-family="DejaVu Sans Mono, Consolas, monospace" font-size="14" letter-spacing="0" textLength="48" lengthAdjust="spacingAndGlyphs" xml:space="preserve">88.2KB</text>
<text x="0" y="89" fill="#848284" font-family="DejaVu Sans Mono, Consolas, monospace" font-size="14" letter-spacing="0" textLength="40" lengthAdjust="spacingAndGlyphs" xml:space="preserve">RX/TX</text>
<rect x="0" y="149" width="7" height="4" fill="#00ff00"/>
<rect x="8" y="144" width="7" height="9" fill="#00ffff"/>
<rect x="16" y="147" width="7" height="6" fill="#00ff00"/>
<rect x="24" y="139" width="7" height="14" fill="#00ffff"/>
<rect x="32" y="145" width="7" height="8" fill="#00ff00"/>
<rect x="40" y="133" width="7" height="20" fill="#00ffff"/>
<rect x="48" y="142" width="7" height="11" fill="#00ff00"/>
<rect x="56" y="127" width="7" height="26" fill="#00ffff"/>
<rect x="64" y="138" width="7" height="15" fill="#00ff00"/>
<rect x="72" y="123" width="7" height="30" fill="#00ffff"/>
<rect x="80" y="135" width="7" height="18" fill="#00ff00"/>
<rect x="88" y="131" width="7" height="22" fill="#00ffff"/>
<rect x="96" y="141" width="7" height="12" fill="#00ff00"/>
<rect x="104" y="125" width="7" height="28" fill="#00ffff"/>
<rect x="112" y="137" width="7" height="16" fill="#00ff00"/>
<rect x="120" y="129" width="7" height="24" fill="#00ffff"/>
<rect x="128" y="143" width="7" height="10" fill="#00ff00"/>
<rect x="136" y="135" width="7" height="18" fill="#00ffff"/>
<rect x="144" y="146" width="7" height="7" fill="#00ff00"/>
<rect x="152" y="140" width="7" height="13" fill="#00ffff"/>
<rect x="0" y="155" width="166" height="1" fill="#212021"/>
</svg>
