<svg xmlns="http://www.w3.org/2000/svg" width="344" height="640" viewBox="0 0 166 320" style="background:#000;border-radius:10px">
<rect x="0" y="0" width="166" height="320" rx="4" fill="#000"/>
<rect x="0" y="0" width="166" height="320" fill="#000000"/>
<rect x="0" y="0" width="166" height="34" fill="#00ffff"/>
<text x="51" y="13" fill="#000000" font-family="DejaVu Sans Mono, Consolas, monospace" font-size="14" letter-spacing="0" textLength="64" lengthAdjust="spacingAndGlyphs" xml:space="preserve">Invaders</text>
<text x="47" y="30" fill="#000000" font-family="DejaVu Sans Mono, Consolas, monospace" font-size="14" letter-spacing="0" textLength="72" lengthAdjust="spacingAndGlyphs" xml:space="preserve">- 24/26 -</text>
<rect x="6" y="46" width="14" height="10" fill="#00ff00"/>
<rect x="26" y="46" width="14" height="10" fill="#00ff00"/>
<rect x="46" y="46" width="14" height="10" fill="#00ff00"/>
<rect x="66" y="46" width="14" height="10" fill="#00ff00"/>
<rect x="86" y="46" width="14" height="10" fill="#00ff00"/>
<rect x="6" y="64" width="14" height="10" fill="#00ff00"/>
<rect x="26" y="64" width="14" height="10" fill="#00ff00"/>
<rect x="46" y="64" width="14" height="10" fill="#00ff00"/>
<rect x="66" y="64" width="14" height="10" fill="#00ff00"/>
<rect x="86" y="64" width="14" height="10" fill="#00ff00"/>
<rect x="6" y="82" width="14" height="10" fill="#00ff00"/>
<rect x="26" y="82" width="14" height="10" fill="#00ff00"/>
<rect x="46" y="82" width="14" height="10" fill="#00ff00"/>
<rect x="66" y="82" width="14" height="10" fill="#00ff00"/>
<rect x="86" y="82" width="14" height="10" fill="#00ff00"/>
<rect x="74" y="288" width="16" height="8" fill="#00ffff"/>
<rect x="82" y="266" width="2" height="4" fill="#ff0000"/>
<text x="156" y="54" fill="#848284" font-family="DejaVu Sans Mono, Consolas, monospace" font-size="14" letter-spacing="0" textLength="8" lengthAdjust="spacingAndGlyphs" xml:space="preserve">6</text>
<text x="7" y="314" fill="#848284" font-family="DejaVu Sans Mono, Consolas, monospace" font-size="14" letter-spacing="0" textLength="152" lengthAdjust="spacingAndGlyphs" xml:space="preserve">A=spara A(1.5s)=es~</text>
</svg>
