<svg xmlns="http://www.w3.org/2000/svg" width="344" height="640" viewBox="0 0 166 320" style="background:#000;border-radius:10px">
<rect x="0" y="0" width="166" height="320" rx="4" fill="#000"/>
<rect x="0" y="0" width="166" height="320" fill="#000000"/>
<rect x="0" y="0" width="166" height="34" fill="#ffa600"/>
<text x="51" y="13" fill="#000000" font-family="DejaVu Sans Mono, Consolas, monospace" font-size="14" letter-spacing="0" textLength="64" lengthAdjust="spacingAndGlyphs" xml:space="preserve">Breakout</text>
<text x="47" y="30" fill="#000000" font-family="DejaVu Sans Mono, Consolas, monospace" font-size="14" letter-spacing="0" textLength="72" lengthAdjust="spacingAndGlyphs" xml:space="preserve">- 25/26 -</text>
<rect x="4" y="44" width="24" height="8" fill="#ff0000"/>
<rect x="30" y="44" width="24" height="8" fill="#ff0000"/>
<rect x="56" y="44" width="24" height="8" fill="#ff0000"/>
<rect x="82" y="44" width="24" height="8" fill="#ff0000"/>
<rect x="108" y="44" width="24" height="8" fill="#ff0000"/>
<rect x="134" y="44" width="24" height="8" fill="#ff0000"/>
<rect x="4" y="55" width="24" height="8" fill="#ffa600"/>
<rect x="30" y="55" width="24" height="8" fill="#ffa600"/>
<rect x="56" y="55" width="24" height="8" fill="#ffa600"/>
<rect x="82" y="55" width="24" height="8" fill="#ffa600"/>
<rect x="108" y="55" width="24" height="8" fill="#ffa600"/>
<rect x="134" y="55" width="24" height="8" fill="#ffa600"/>
<rect x="4" y="66" width="24" height="8" fill="#ffff00"/>
<rect x="30" y="66" width="24" height="8" fill="#ffff00"/>
<rect x="56" y="66" width="24" height="8" fill="#ffff00"/>
<rect x="82" y="66" width="24" height="8" fill="#ffff00"/>
<rect x="108" y="66" width="24" height="8" fill="#ffff00"/>
<rect x="134" y="66" width="24" height="8" fill="#ffff00"/>
<rect x="4" y="77" width="24" height="8" fill="#00ff00"/>
<rect x="30" y="77" width="24" height="8" fill="#00ff00"/>
<rect x="56" y="77" width="24" height="8" fill="#00ff00"/>
<rect x="82" y="77" width="24" height="8" fill="#00ff00"/>
<rect x="108" y="77" width="24" height="8" fill="#00ff00"/>
<rect x="134" y="77" width="24" height="8" fill="#00ff00"/>
<rect x="68" y="292" width="28" height="4" fill="#00ffff"/>
<rect x="82" y="266" width="4" height="4" fill="#ffffff"/>
<text x="148" y="54" fill="#848284" font-family="DejaVu Sans Mono, Consolas, monospace" font-size="14" letter-spacing="0" textLength="16" lengthAdjust="spacingAndGlyphs" xml:space="preserve">12</text>
<text x="7" y="314" fill="#848284" font-family="DejaVu Sans Mono, Consolas, monospace" font-size="14" letter-spacing="0" textLength="152" lengthAdjust="spacingAndGlyphs" xml:space="preserve">A=inverti A(1.5s)=~</text>
</svg>
